<?xml version="1.0" encoding="UTF-8"?>
<svg xmlns="http://www.w3.org/2000/svg" width="1600" height="900" viewBox="0 0 1600 900">
  <defs>
    <pattern id="dots" width="18" height="18" patternUnits="userSpaceOnUse">
      <circle cx="4" cy="4" r="1.3" fill="#9b7a58"/>
    </pattern>
    <marker id="arrow" markerWidth="10" markerHeight="10" refX="8" refY="3" orient="auto">
      <path d="M0,0 L0,6 L9,3 z" fill="#241d18"/>
    </marker>
  </defs>
  <rect width="1600" height="900" fill="#f8efe3"/>
  <rect x="0" y="0" width="1600" height="900" fill="url(#dots)" opacity="0.2"/>
  
    <g>
      
    <rect x="40" y="36" width="744" height="382" rx="22" fill="#fffaf0" stroke="#241d18" stroke-width="5"/>
    <rect x="52" y="48" width="720" height="358" rx="16" fill="url(#dots)" opacity="0.46"/>
  
      
      
    <g transform="translate(68 172) scale(0.88)">
      <circle cx="82" cy="86" r="72" fill="#1e8fe4" stroke="#241d18" stroke-width="5"/>
      <circle cx="82" cy="98" r="54" fill="#fff" stroke="#241d18" stroke-width="4"/>
      <circle cx="58" cy="62" r="22" fill="#fff" stroke="#241d18" stroke-width="4"/>
      <circle cx="104" cy="62" r="22" fill="#fff" stroke="#241d18" stroke-width="4"/>
      <circle cx="65" cy="66" r="6" fill="#241d18"/>
      <circle cx="111" cy="66" r="6" fill="#241d18"/>
      <circle cx="82" cy="84" r="11" fill="#e74736" stroke="#241d18" stroke-width="3"/>
      <path d="M48 108 Q82 134 116 108" fill="none" stroke="#241d18" stroke-width="5" stroke-linecap="round"/>
      <rect x="45" y="150" width="74" height="92" rx="32" fill="#1e8fe4" stroke="#241d18" stroke-width="5"/>
      <circle cx="82" cy="168" r="12" fill="#f7d66d" stroke="#241d18" stroke-width="3"/>
      <path d="M28 166 Q-8 154 12 120" fill="none" stroke="#241d18" stroke-width="8" stroke-linecap="round"/>
      <path d="M132 166 Q178 132 202 94" fill="none" stroke="#241d18" stroke-width="8" stroke-linecap="round"/>
    </g>
  
      
    <g transform="translate(600 190) scale(0.72)">
      <circle cx="78" cy="80" r="58" fill="#ffd7b6" stroke="#241d18" stroke-width="5"/>
      <path d="M30 58 Q70 8 128 50 Q102 28 78 38 Q54 28 30 58" fill="#2c241f" stroke="#241d18" stroke-width="4"/>
      <circle cx="54" cy="82" r="20" fill="none" stroke="#241d18" stroke-width="5"/>
      <circle cx="102" cy="82" r="20" fill="none" stroke="#241d18" stroke-width="5"/>
      <path d="M74 82 H82" stroke="#241d18" stroke-width="5"/>
      <circle cx="55" cy="82" r="5" fill="#241d18"/>
      <circle cx="103" cy="82" r="5" fill="#241d18"/>
      <path d="M62 112 Q78 124 96 112" fill="none" stroke="#241d18" stroke-width="4" stroke-linecap="round"/>
      <rect x="28" y="134" width="108" height="120" rx="30" fill="#ffc84f" stroke="#241d18" stroke-width="5"/>
      <path d="M48 150 L82 188 L116 150" fill="none" stroke="#241d18" stroke-width="4"/>
      <path d="M28 168 Q0 142 16 120" fill="none" stroke="#241d18" stroke-width="8" stroke-linecap="round"/>
    </g>
  
      <rect x="218" y="84" width="390" height="112" rx="18" fill="#ffd3ca" stroke="#241d18" stroke-width="5"/>
      <text x="413" y="130" text-anchor="middle" font-size="42" font-weight="700" fill="#241d18">三种上下文</text><text x="413" y="178" text-anchor="middle" font-size="42" font-weight="700" fill="#241d18">分盒装</text>
      
    <rect x="168" y="340" width="176" height="56" rx="28" fill="#d9ecff" stroke="#241d18" stroke-width="4"/>
    <text x="256" y="377" text-anchor="middle" font-size="24" font-weight="700" fill="#241d18">历史</text>
  
    <rect x="340" y="340" width="176" height="56" rx="28" fill="#fff0b8" stroke="#241d18" stroke-width="4"/>
    <text x="428" y="377" text-anchor="middle" font-size="24" font-weight="700" fill="#241d18">记忆</text>
  
    <rect x="512" y="340" width="176" height="56" rx="28" fill="#dff2e5" stroke="#241d18" stroke-width="4"/>
    <text x="600" y="377" text-anchor="middle" font-size="24" font-weight="700" fill="#241d18">RAG</text>
  
    
    </g>
  
    <g>
      
    <rect x="816" y="36" width="744" height="382" rx="22" fill="#fff6e8" stroke="#241d18" stroke-width="5"/>
    <rect x="828" y="48" width="720" height="358" rx="16" fill="url(#dots)" opacity="0.46"/>
  
      
      
    <g transform="translate(880 166) scale(0.9)">
      <circle cx="78" cy="80" r="58" fill="#ffd7b6" stroke="#241d18" stroke-width="5"/>
      <path d="M30 58 Q70 8 128 50 Q102 28 78 38 Q54 28 30 58" fill="#2c241f" stroke="#241d18" stroke-width="4"/>
      <circle cx="54" cy="82" r="20" fill="none" stroke="#241d18" stroke-width="5"/>
      <circle cx="102" cy="82" r="20" fill="none" stroke="#241d18" stroke-width="5"/>
      <path d="M74 82 H82" stroke="#241d18" stroke-width="5"/>
      <circle cx="55" cy="82" r="5" fill="#241d18"/>
      <circle cx="103" cy="82" r="5" fill="#241d18"/>
      <path d="M62 112 Q78 124 96 112" fill="none" stroke="#241d18" stroke-width="4" stroke-linecap="round"/>
      <rect x="28" y="134" width="108" height="120" rx="30" fill="#ffc84f" stroke="#241d18" stroke-width="5"/>
      <path d="M48 150 L82 188 L116 150" fill="none" stroke="#241d18" stroke-width="4"/>
      <path d="M28 168 Q0 142 16 120" fill="none" stroke="#241d18" stroke-width="8" stroke-linecap="round"/>
    </g>
  
      
    <g transform="translate(1336 164) scale(0.82)">
      <circle cx="82" cy="86" r="72" fill="#1e8fe4" stroke="#241d18" stroke-width="5"/>
      <circle cx="82" cy="98" r="54" fill="#fff" stroke="#241d18" stroke-width="4"/>
      <circle cx="58" cy="62" r="22" fill="#fff" stroke="#241d18" stroke-width="4"/>
      <circle cx="104" cy="62" r="22" fill="#fff" stroke="#241d18" stroke-width="4"/>
      <circle cx="65" cy="66" r="6" fill="#241d18"/>
      <circle cx="111" cy="66" r="6" fill="#241d18"/>
      <circle cx="82" cy="84" r="11" fill="#e74736" stroke="#241d18" stroke-width="3"/>
      <path d="M48 108 Q82 134 116 108" fill="none" stroke="#241d18" stroke-width="5" stroke-linecap="round"/>
      <rect x="45" y="150" width="74" height="92" rx="32" fill="#1e8fe4" stroke="#241d18" stroke-width="5"/>
      <circle cx="82" cy="168" r="12" fill="#f7d66d" stroke="#241d18" stroke-width="3"/>
      <path d="M28 166 Q-8 154 12 120" fill="none" stroke="#241d18" stroke-width="8" stroke-linecap="round"/>
      <path d="M132 166 Q178 132 202 94" fill="none" stroke="#241d18" stroke-width="8" stroke-linecap="round"/>
    </g>
  
      
    <rect x="980" y="76" width="176" height="56" rx="28" fill="#fff4c8" stroke="#241d18" stroke-width="4"/>
    <text x="1068" y="113" text-anchor="middle" font-size="24" font-weight="700" fill="#241d18">都塞 prompt？</text>
  
      
    <rect x="1268" y="78" width="176" height="56" rx="28" fill="#d9ecff" stroke="#241d18" stroke-width="4"/>
    <text x="1356" y="115" text-anchor="middle" font-size="24" font-weight="700" fill="#241d18">分盒装。</text>
  
      
    <rect x="1006" y="290" width="160" height="96" rx="18" fill="#fff0b8" stroke="#241d18" stroke-width="4"/>
    <circle cx="1048" cy="330" r="18" fill="#fff" stroke="#241d18" stroke-width="4"/>
    <text x="1098" y="348" text-anchor="middle" font-size="24" font-weight="700" fill="#241d18">聊天</text>
  
    <rect x="1138" y="290" width="160" height="96" rx="18" fill="#dff2e5" stroke="#241d18" stroke-width="4"/>
    <circle cx="1180" cy="330" r="18" fill="#fff" stroke="#241d18" stroke-width="4"/>
    <text x="1230" y="348" text-anchor="middle" font-size="24" font-weight="700" fill="#241d18">偏好</text>
  
    <rect x="1270" y="290" width="160" height="96" rx="18" fill="#fff0b8" stroke="#241d18" stroke-width="4"/>
    <circle cx="1312" cy="330" r="18" fill="#fff" stroke="#241d18" stroke-width="4"/>
    <text x="1362" y="348" text-anchor="middle" font-size="24" font-weight="700" fill="#241d18">资料</text>
  
    
    </g>
  
    <g>
      
    <rect x="40" y="450" width="744" height="382" rx="22" fill="#fffaf0" stroke="#241d18" stroke-width="5"/>
    <rect x="52" y="462" width="720" height="358" rx="16" fill="url(#dots)" opacity="0.46"/>
  
      
      
        <rect x="92" y="542" width="198" height="190" rx="22" fill="#d9ecff" stroke="#241d18" stroke-width="5"/>
        <text x="191" y="595" text-anchor="middle" font-size="30" font-weight="700" fill="#241d18">会话历史</text>
        <circle cx="191" cy="648" r="28" fill="#fff" stroke="#241d18" stroke-width="4"/>
        <text x="191" y="710" text-anchor="middle" font-size="24" font-weight="700" fill="#241d18">刚刚发生</text>
      
        <rect x="324" y="542" width="198" height="190" rx="22" fill="#fff0b8" stroke="#241d18" stroke-width="5"/>
        <text x="423" y="595" text-anchor="middle" font-size="30" font-weight="700" fill="#241d18">长期记忆</text>
        <circle cx="423" cy="648" r="28" fill="#fff" stroke="#241d18" stroke-width="4"/>
        <text x="423" y="710" text-anchor="middle" font-size="24" font-weight="700" fill="#241d18">稳定偏好</text>
      
        <rect x="556" y="542" width="198" height="190" rx="22" fill="#dff2e5" stroke="#241d18" stroke-width="5"/>
        <text x="655" y="595" text-anchor="middle" font-size="30" font-weight="700" fill="#241d18">RAG 证据</text>
        <circle cx="655" cy="648" r="28" fill="#fff" stroke="#241d18" stroke-width="4"/>
        <text x="655" y="710" text-anchor="middle" font-size="24" font-weight="700" fill="#241d18">外部资料</text>
      
    
    </g>
  
    <g>
      
    <rect x="816" y="450" width="744" height="382" rx="22" fill="#fff6e8" stroke="#241d18" stroke-width="5"/>
    <rect x="828" y="462" width="720" height="358" rx="16" fill="url(#dots)" opacity="0.46"/>
  
      
      <rect x="890" y="504" width="592" height="236" rx="20" fill="#fffdf4" stroke="#241d18" stroke-width="5"/>
      <text x="1186" y="554" text-anchor="middle" font-size="36" font-weight="700" fill="#241d18">别混装</text>
      <text x="1186" y="606" text-anchor="middle" font-size="28" font-weight="700" fill="#241d18">历史管刚刚</text><text x="1186" y="652" text-anchor="middle" font-size="28" font-weight="700" fill="#241d18">记忆管长期</text><text x="1186" y="698" text-anchor="middle" font-size="28" font-weight="700" fill="#241d18">RAG 管证据</text>
      <rect x="974" y="752" width="424" height="44" rx="22" fill="#ffd3ca" stroke="#241d18" stroke-width="4"/>
      <text x="1186" y="782" text-anchor="middle" font-size="22" font-weight="700" fill="#241d18">边界越清楚，系统越稳</text>
      
    <g transform="translate(848 686) scale(0.48)">
      <circle cx="82" cy="86" r="72" fill="#1e8fe4" stroke="#241d18" stroke-width="5"/>
      <circle cx="82" cy="98" r="54" fill="#fff" stroke="#241d18" stroke-width="4"/>
      <circle cx="58" cy="62" r="22" fill="#fff" stroke="#241d18" stroke-width="4"/>
      <circle cx="104" cy="62" r="22" fill="#fff" stroke="#241d18" stroke-width="4"/>
      <circle cx="65" cy="66" r="6" fill="#241d18"/>
      <circle cx="111" cy="66" r="6" fill="#241d18"/>
      <circle cx="82" cy="84" r="11" fill="#e74736" stroke="#241d18" stroke-width="3"/>
      <path d="M48 108 Q82 134 116 108" fill="none" stroke="#241d18" stroke-width="5" stroke-linecap="round"/>
      <rect x="45" y="150" width="74" height="92" rx="32" fill="#1e8fe4" stroke="#241d18" stroke-width="5"/>
      <circle cx="82" cy="168" r="12" fill="#f7d66d" stroke="#241d18" stroke-width="3"/>
      <path d="M28 166 Q-8 154 12 120" fill="none" stroke="#241d18" stroke-width="8" stroke-linecap="round"/>
      <path d="M132 166 Q178 132 202 94" fill="none" stroke="#241d18" stroke-width="8" stroke-linecap="round"/>
    </g>
  
      
    <g transform="translate(1420 690) scale(0.42)">
      <circle cx="78" cy="80" r="58" fill="#ffd7b6" stroke="#241d18" stroke-width="5"/>
      <path d="M30 58 Q70 8 128 50 Q102 28 78 38 Q54 28 30 58" fill="#2c241f" stroke="#241d18" stroke-width="4"/>
      <circle cx="54" cy="82" r="20" fill="none" stroke="#241d18" stroke-width="5"/>
      <circle cx="102" cy="82" r="20" fill="none" stroke="#241d18" stroke-width="5"/>
      <path d="M74 82 H82" stroke="#241d18" stroke-width="5"/>
      <circle cx="55" cy="82" r="5" fill="#241d18"/>
      <circle cx="103" cy="82" r="5" fill="#241d18"/>
      <path d="M62 112 Q78 124 96 112" fill="none" stroke="#241d18" stroke-width="4" stroke-linecap="round"/>
      <rect x="28" y="134" width="108" height="120" rx="30" fill="#ffc84f" stroke="#241d18" stroke-width="5"/>
      <path d="M48 150 L82 188 L116 150" fill="none" stroke="#241d18" stroke-width="4"/>
      <path d="M28 168 Q0 142 16 120" fill="none" stroke="#241d18" stroke-width="8" stroke-linecap="round"/>
    </g>
  
    
    </g>
  
</svg>